<svg width="26" height="24" viewBox="0 0 26 24" fill="none" xmlns="http://www.w3.org/2000/svg">
<path d="M13 10.6V10M17.8 10.6V10M8.2 10.6V10M2.7568 17.5936C1 16.1884 1 15.1252 1 10.6C1 6.0748 1 3.8116 2.7568 2.4064C4.516 1 7.3432 1 13 1C18.6568 1 21.4852 1 23.242 2.4064C25 3.8116 25 6.0748 25 10.6C25 15.1252 25 16.1884 23.242 17.5936C21.4864 19 18.6568 19 13 19C9.988 19 8.44 21.0856 5.8 22.6V18.7456C4.4872 18.55 3.5212 18.2056 2.7568 17.5936Z" stroke="black" stroke-width="1.5" stroke-linecap="round" stroke-linejoin="round"/>
</svg>
