<svg width="24" height="23" viewBox="0 0 24 23" fill="none" xmlns="http://www.w3.org/2000/svg">
<path fill-rule="evenodd" clip-rule="evenodd" d="M19.4838 8.9989V4.4996C22.4473 4.4996 22.4781 4.34288 22.4781 5.99937C22.4781 7.65586 21.138 8.9989 19.4838 8.9989V8.9989ZM17.9871 7.49883C17.9871 10.8118 15.307 14.9977 12 14.9977C8.69306 14.9977 6.01298 10.8118 6.01298 7.49883V2.99953C6.01298 2.2579 6.7921 1.49977 7.50974 1.49977H16.4903C17.208 1.49977 17.9871 2.2339 17.9871 2.99953V7.49883V7.49883ZM4.51602 8.9989C2.86253 8.9989 1.52173 7.65586 1.52173 5.99937C1.52173 4.34288 1.55248 4.4996 4.51602 4.4996V8.9989V8.9989ZM19.4838 2.99953C19.4838 1.34304 18.1438 0 16.4903 0H7.5097C5.85621 0 4.51617 1.34304 4.51617 2.99953C-0.610779 2.99953 0.025121 2.99878 0.025121 5.99906C0.025121 8.48342 2.03556 10.4984 4.51617 10.4984C4.69464 10.4984 4.86561 10.4699 5.03809 10.4459C6.04293 13.3884 8.41031 16.0392 11.2516 16.4434V20.9967H9.00647C8.59328 20.9967 8.25808 21.3319 8.25808 21.7466C8.25808 22.1613 8.59328 22.4965 9.00647 22.4965H14.9935C15.4067 22.4965 15.7419 22.1613 15.7419 21.7466C15.7419 21.3319 15.4067 20.9967 14.9935 20.9967H12.7484V16.4434C15.5897 16.0392 17.9571 13.3884 18.9627 10.4459C19.1344 10.4699 19.3054 10.4984 19.4838 10.4984C21.9644 10.4984 23.9749 8.48342 23.9749 5.99906C23.9749 2.99878 24.6108 2.99953 19.4838 2.99953V2.99953Z" fill="#0D0D0D"/>
</svg>
